<?xml version="1.0" standalone="no"?>
<!DOCTYPE svg PUBLIC "-//W3C//DTD SVG 20010904//EN"
 "http://www.w3.org/TR/2001/REC-SVG-20010904/DTD/svg10.dtd">
<svg version="1.0" xmlns="http://www.w3.org/2000/svg"
 width="626.000000pt" height="417.000000pt" viewBox="0 0 626.000000 417.000000"
 preserveAspectRatio="xMidYMid meet">

<g transform="translate(0.000000,417.000000) scale(0.100000,-0.100000)"
fill="#000000" stroke="none">
<path d="M0 2085 l0 -2085 3130 0 3130 0 0 2085 0 2085 -3130 0 -3130 0 0
-2085z m1160 1030 c-13 -12 -15 -11 -15 15 0 26 2 28 15 15 13 -13 13 -17 0
-30z m1388 -1821 c2 -1 -4 -4 -12 -7 -8 -3 -16 2 -19 14 -5 17 -3 18 11 7 9
-7 18 -13 20 -14z m298 2 c-1 -19 -4 -21 -18 -13 -15 10 -15 12 0 24 9 7 18
13 18 13 1 0 1 -11 0 -24z m-336 -46 c-6 -11 -13 -20 -16 -20 -2 0 0 9 6 20 6
11 13 20 16 20 2 0 0 -9 -6 -20z m370 -30 c6 -11 8 -20 6 -20 -3 0 -10 9 -16
20 -6 11 -8 20 -6 20 3 0 10 -9 16 -20z m54 -95 c15 -27 20 -41 11 -30 -19 22
-63 106 -48 90 5 -5 22 -32 37 -60z m-499 -5 c-9 -16 -18 -30 -21 -30 -2 0 2
14 11 30 9 17 18 30 21 30 2 0 -2 -13 -11 -30z m-38 -69 c-10 -26 -5 -39 57
-145 37 -64 76 -121 86 -126 25 -13 256 -13 280 0 11 6 38 43 61 83 23 39 52
89 66 111 17 26 24 48 20 69 -3 25 -2 28 8 14 7 -10 17 -17 24 -17 16 0 14 -6
-12 -32 -31 -32 -137 -222 -136 -245 0 -10 31 -70 67 -133 62 -106 70 -115
102 -121 l35 -6 -32 -2 c-21 -1 -38 -10 -53 -28 -15 -20 -18 -22 -11 -6 19 37
13 54 -59 175 l-71 118 -149 0 -148 0 -47 -80 c-26 -44 -49 -80 -51 -80 -3 0
15 37 40 83 l46 83 -18 35 c-43 82 -116 205 -129 215 -11 10 -10 16 9 38 13
14 24 26 25 26 1 0 -4 -13 -10 -29z m23 -481 c-6 -11 -13 -20 -16 -20 -2 0 0
9 6 20 6 11 13 20 16 20 2 0 0 -9 -6 -20z m-27 -54 c-3 -16 -10 -23 -19 -19
-13 5 -12 8 2 24 22 24 22 24 17 -5z"/>
</g>
</svg>
