<svg xmlns="http://www.w3.org/2000/svg" version="1.1" xmlns:xlink="http://www.w3.org/1999/xlink" xmlns:svgjs="http://svgjs.dev/svgjs" width="1440" height="560" preserveAspectRatio="none" viewBox="0 0 1440 560"><g mask="url(&quot;#SvgjsMask1000&quot;)" fill="none"><rect width="1440" height="560" x="0" y="0" fill="#0e2a47"></rect><path d="M24.32 -28.44L89.27 9.06L89.27 84.06L24.32 121.56L-40.63 84.06L-40.63 9.06zM89.27 84.06L154.23 121.56L154.23 196.56L89.27 234.06L24.32 196.56L24.32 121.56zM24.32 196.56L89.27 234.06L89.27 309.06L24.32 346.56L-40.63 309.06L-40.63 234.06zM154.23 421.56L219.18 459.06L219.18 534.06L154.23 571.56L89.27 534.06L89.27 459.06zM349.09 84.06L414.04 121.56L414.04 196.56L349.09 234.06L284.13 196.56L284.13 121.56zM479 84.06L543.95 121.56L543.95 196.56L479 234.06L414.04 196.56L414.04 121.56zM414.04 421.56L479 459.06L479 534.06L414.04 571.56L349.09 534.06L349.09 459.06zM608.9 309.06L673.86 346.56L673.86 421.56L608.9 459.06L543.95 421.56L543.95 346.56zM608.9 534.06L673.86 571.56L673.86 646.56L608.9 684.06L543.95 646.56L543.95 571.56zM673.86 -28.44L738.81 9.06L738.81 84.06L673.86 121.56L608.9 84.06L608.9 9.06zM738.81 309.06L803.77 346.56L803.77 421.56L738.81 459.06L673.86 421.56L673.86 346.56zM868.72 309.06L933.67 346.56L933.67 421.56L868.72 459.06L803.76 421.56L803.76 346.56zM868.72 534.06L933.67 571.56L933.67 646.56L868.72 684.06L803.76 646.56L803.76 571.56zM933.67 -28.44L998.63 9.06L998.63 84.06L933.67 121.56L868.72 84.06L868.72 9.06zM933.67 196.56L998.63 234.06L998.63 309.06L933.67 346.56L868.72 309.06L868.72 234.06zM1128.53 84.06L1193.49 121.56L1193.49 196.56L1128.53 234.06L1063.58 196.56L1063.58 121.56zM1063.58 196.56L1128.53 234.06L1128.53 309.06L1063.58 346.56L998.63 309.06L998.63 234.06zM1128.53 534.06L1193.49 571.56L1193.49 646.56L1128.53 684.06L1063.58 646.56L1063.58 571.56zM1258.44 84.06L1323.39 121.56L1323.39 196.56L1258.44 234.06L1193.49 196.56L1193.49 121.56zM1258.44 309.06L1323.39 346.56L1323.39 421.56L1258.44 459.06L1193.49 421.56L1193.49 346.56zM1193.49 421.56L1258.44 459.06L1258.44 534.06L1193.49 571.56L1128.53 534.06L1128.53 459.06zM1258.44 534.06L1323.39 571.56L1323.39 646.56L1258.44 684.06L1193.49 646.56L1193.49 571.56zM1323.39 -28.44L1388.35 9.06L1388.35 84.06L1323.39 121.56L1258.44 84.06L1258.44 9.06zM1323.39 421.56L1388.35 459.06L1388.35 534.06L1323.39 571.56L1258.44 534.06L1258.44 459.06zM1388.35 534.06L1453.3 571.56L1453.3 646.56L1388.35 684.06L1323.39 646.56L1323.39 571.56zM1453.3 -28.44L1518.26 9.06L1518.26 84.06L1453.3 121.56L1388.35 84.06L1388.35 9.06zM1453.3 196.56L1518.26 234.06L1518.26 309.06L1453.3 346.56L1388.35 309.06L1388.35 234.06zM1518.26 309.06L1583.21 346.56L1583.21 421.56L1518.26 459.06L1453.3 421.56L1453.3 346.56z" stroke="#03305d" stroke-width="2"></path><path d="M16.82 -28.44 a7.5 7.5 0 1 0 15 0 a7.5 7.5 0 1 0 -15 0zM81.77 9.06 a7.5 7.5 0 1 0 15 0 a7.5 7.5 0 1 0 -15 0zM81.77 84.06 a7.5 7.5 0 1 0 15 0 a7.5 7.5 0 1 0 -15 0zM16.82 121.56 a7.5 7.5 0 1 0 15 0 a7.5 7.5 0 1 0 -15 0zM-48.13 84.06 a7.5 7.5 0 1 0 15 0 a7.5 7.5 0 1 0 -15 0zM-48.13 9.06 a7.5 7.5 0 1 0 15 0 a7.5 7.5 0 1 0 -15 0zM146.73 121.56 a7.5 7.5 0 1 0 15 0 a7.5 7.5 0 1 0 -15 0zM146.73 196.56 a7.5 7.5 0 1 0 15 0 a7.5 7.5 0 1 0 -15 0zM81.77 234.06 a7.5 7.5 0 1 0 15 0 a7.5 7.5 0 1 0 -15 0zM16.82 196.56 a7.5 7.5 0 1 0 15 0 a7.5 7.5 0 1 0 -15 0zM81.77 309.06 a7.5 7.5 0 1 0 15 0 a7.5 7.5 0 1 0 -15 0zM16.82 346.56 a7.5 7.5 0 1 0 15 0 a7.5 7.5 0 1 0 -15 0zM-48.13 309.06 a7.5 7.5 0 1 0 15 0 a7.5 7.5 0 1 0 -15 0zM-48.13 234.06 a7.5 7.5 0 1 0 15 0 a7.5 7.5 0 1 0 -15 0zM146.73 421.56 a7.5 7.5 0 1 0 15 0 a7.5 7.5 0 1 0 -15 0zM211.68 459.06 a7.5 7.5 0 1 0 15 0 a7.5 7.5 0 1 0 -15 0zM211.68 534.06 a7.5 7.5 0 1 0 15 0 a7.5 7.5 0 1 0 -15 0zM146.73 571.56 a7.5 7.5 0 1 0 15 0 a7.5 7.5 0 1 0 -15 0zM81.77 534.06 a7.5 7.5 0 1 0 15 0 a7.5 7.5 0 1 0 -15 0zM81.77 459.06 a7.5 7.5 0 1 0 15 0 a7.5 7.5 0 1 0 -15 0zM341.59 84.06 a7.5 7.5 0 1 0 15 0 a7.5 7.5 0 1 0 -15 0zM406.54 121.56 a7.5 7.5 0 1 0 15 0 a7.5 7.5 0 1 0 -15 0zM406.54 196.56 a7.5 7.5 0 1 0 15 0 a7.5 7.5 0 1 0 -15 0zM341.59 234.06 a7.5 7.5 0 1 0 15 0 a7.5 7.5 0 1 0 -15 0zM276.63 196.56 a7.5 7.5 0 1 0 15 0 a7.5 7.5 0 1 0 -15 0zM276.63 121.56 a7.5 7.5 0 1 0 15 0 a7.5 7.5 0 1 0 -15 0zM471.5 84.06 a7.5 7.5 0 1 0 15 0 a7.5 7.5 0 1 0 -15 0zM536.45 121.56 a7.5 7.5 0 1 0 15 0 a7.5 7.5 0 1 0 -15 0zM536.45 196.56 a7.5 7.5 0 1 0 15 0 a7.5 7.5 0 1 0 -15 0zM471.5 234.06 a7.5 7.5 0 1 0 15 0 a7.5 7.5 0 1 0 -15 0zM406.54 421.56 a7.5 7.5 0 1 0 15 0 a7.5 7.5 0 1 0 -15 0zM471.5 459.06 a7.5 7.5 0 1 0 15 0 a7.5 7.5 0 1 0 -15 0zM471.5 534.06 a7.5 7.5 0 1 0 15 0 a7.5 7.5 0 1 0 -15 0zM406.54 571.56 a7.5 7.5 0 1 0 15 0 a7.5 7.5 0 1 0 -15 0zM341.59 534.06 a7.5 7.5 0 1 0 15 0 a7.5 7.5 0 1 0 -15 0zM341.59 459.06 a7.5 7.5 0 1 0 15 0 a7.5 7.5 0 1 0 -15 0zM601.4 309.06 a7.5 7.5 0 1 0 15 0 a7.5 7.5 0 1 0 -15 0zM666.36 346.56 a7.5 7.5 0 1 0 15 0 a7.5 7.5 0 1 0 -15 0zM666.36 421.56 a7.5 7.5 0 1 0 15 0 a7.5 7.5 0 1 0 -15 0zM601.4 459.06 a7.5 7.5 0 1 0 15 0 a7.5 7.5 0 1 0 -15 0zM536.45 421.56 a7.5 7.5 0 1 0 15 0 a7.5 7.5 0 1 0 -15 0zM536.45 346.56 a7.5 7.5 0 1 0 15 0 a7.5 7.5 0 1 0 -15 0zM601.4 534.06 a7.5 7.5 0 1 0 15 0 a7.5 7.5 0 1 0 -15 0zM666.36 571.56 a7.5 7.5 0 1 0 15 0 a7.5 7.5 0 1 0 -15 0zM666.36 646.56 a7.5 7.5 0 1 0 15 0 a7.5 7.5 0 1 0 -15 0zM601.4 684.06 a7.5 7.5 0 1 0 15 0 a7.5 7.5 0 1 0 -15 0zM536.45 646.56 a7.5 7.5 0 1 0 15 0 a7.5 7.5 0 1 0 -15 0zM536.45 571.56 a7.5 7.5 0 1 0 15 0 a7.5 7.5 0 1 0 -15 0zM666.36 -28.44 a7.5 7.5 0 1 0 15 0 a7.5 7.5 0 1 0 -15 0zM731.31 9.06 a7.5 7.5 0 1 0 15 0 a7.5 7.5 0 1 0 -15 0zM731.31 84.06 a7.5 7.5 0 1 0 15 0 a7.5 7.5 0 1 0 -15 0zM666.36 121.56 a7.5 7.5 0 1 0 15 0 a7.5 7.5 0 1 0 -15 0zM601.4 84.06 a7.5 7.5 0 1 0 15 0 a7.5 7.5 0 1 0 -15 0zM601.4 9.06 a7.5 7.5 0 1 0 15 0 a7.5 7.5 0 1 0 -15 0zM731.31 309.06 a7.5 7.5 0 1 0 15 0 a7.5 7.5 0 1 0 -15 0zM796.27 346.56 a7.5 7.5 0 1 0 15 0 a7.5 7.5 0 1 0 -15 0zM796.27 421.56 a7.5 7.5 0 1 0 15 0 a7.5 7.5 0 1 0 -15 0zM731.31 459.06 a7.5 7.5 0 1 0 15 0 a7.5 7.5 0 1 0 -15 0zM861.22 309.06 a7.5 7.5 0 1 0 15 0 a7.5 7.5 0 1 0 -15 0zM926.17 346.56 a7.5 7.5 0 1 0 15 0 a7.5 7.5 0 1 0 -15 0zM926.17 421.56 a7.5 7.5 0 1 0 15 0 a7.5 7.5 0 1 0 -15 0zM861.22 459.06 a7.5 7.5 0 1 0 15 0 a7.5 7.5 0 1 0 -15 0zM796.26 421.56 a7.5 7.5 0 1 0 15 0 a7.5 7.5 0 1 0 -15 0zM796.26 346.56 a7.5 7.5 0 1 0 15 0 a7.5 7.5 0 1 0 -15 0zM861.22 534.06 a7.5 7.5 0 1 0 15 0 a7.5 7.5 0 1 0 -15 0zM926.17 571.56 a7.5 7.5 0 1 0 15 0 a7.5 7.5 0 1 0 -15 0zM926.17 646.56 a7.5 7.5 0 1 0 15 0 a7.5 7.5 0 1 0 -15 0zM861.22 684.06 a7.5 7.5 0 1 0 15 0 a7.5 7.5 0 1 0 -15 0zM796.26 646.56 a7.5 7.5 0 1 0 15 0 a7.5 7.5 0 1 0 -15 0zM796.26 571.56 a7.5 7.5 0 1 0 15 0 a7.5 7.5 0 1 0 -15 0zM926.17 -28.44 a7.5 7.5 0 1 0 15 0 a7.5 7.5 0 1 0 -15 0zM991.13 9.06 a7.5 7.5 0 1 0 15 0 a7.5 7.5 0 1 0 -15 0zM991.13 84.06 a7.5 7.5 0 1 0 15 0 a7.5 7.5 0 1 0 -15 0zM926.17 121.56 a7.5 7.5 0 1 0 15 0 a7.5 7.5 0 1 0 -15 0zM861.22 84.06 a7.5 7.5 0 1 0 15 0 a7.5 7.5 0 1 0 -15 0zM861.22 9.06 a7.5 7.5 0 1 0 15 0 a7.5 7.5 0 1 0 -15 0zM926.17 196.56 a7.5 7.5 0 1 0 15 0 a7.5 7.5 0 1 0 -15 0zM991.13 234.06 a7.5 7.5 0 1 0 15 0 a7.5 7.5 0 1 0 -15 0zM991.13 309.06 a7.5 7.5 0 1 0 15 0 a7.5 7.5 0 1 0 -15 0zM861.22 234.06 a7.5 7.5 0 1 0 15 0 a7.5 7.5 0 1 0 -15 0zM1121.03 84.06 a7.5 7.5 0 1 0 15 0 a7.5 7.5 0 1 0 -15 0zM1185.99 121.56 a7.5 7.5 0 1 0 15 0 a7.5 7.5 0 1 0 -15 0zM1185.99 196.56 a7.5 7.5 0 1 0 15 0 a7.5 7.5 0 1 0 -15 0zM1121.03 234.06 a7.5 7.5 0 1 0 15 0 a7.5 7.5 0 1 0 -15 0zM1056.08 196.56 a7.5 7.5 0 1 0 15 0 a7.5 7.5 0 1 0 -15 0zM1056.08 121.56 a7.5 7.5 0 1 0 15 0 a7.5 7.5 0 1 0 -15 0zM1121.03 309.06 a7.5 7.5 0 1 0 15 0 a7.5 7.5 0 1 0 -15 0zM1056.08 346.56 a7.5 7.5 0 1 0 15 0 a7.5 7.5 0 1 0 -15 0zM1121.03 534.06 a7.5 7.5 0 1 0 15 0 a7.5 7.5 0 1 0 -15 0zM1185.99 571.56 a7.5 7.5 0 1 0 15 0 a7.5 7.5 0 1 0 -15 0zM1185.99 646.56 a7.5 7.5 0 1 0 15 0 a7.5 7.5 0 1 0 -15 0zM1121.03 684.06 a7.5 7.5 0 1 0 15 0 a7.5 7.5 0 1 0 -15 0zM1056.08 646.56 a7.5 7.5 0 1 0 15 0 a7.5 7.5 0 1 0 -15 0zM1056.08 571.56 a7.5 7.5 0 1 0 15 0 a7.5 7.5 0 1 0 -15 0zM1250.94 84.06 a7.5 7.5 0 1 0 15 0 a7.5 7.5 0 1 0 -15 0zM1315.89 121.56 a7.5 7.5 0 1 0 15 0 a7.5 7.5 0 1 0 -15 0zM1315.89 196.56 a7.5 7.5 0 1 0 15 0 a7.5 7.5 0 1 0 -15 0zM1250.94 234.06 a7.5 7.5 0 1 0 15 0 a7.5 7.5 0 1 0 -15 0zM1250.94 309.06 a7.5 7.5 0 1 0 15 0 a7.5 7.5 0 1 0 -15 0zM1315.89 346.56 a7.5 7.5 0 1 0 15 0 a7.5 7.5 0 1 0 -15 0zM1315.89 421.56 a7.5 7.5 0 1 0 15 0 a7.5 7.5 0 1 0 -15 0zM1250.94 459.06 a7.5 7.5 0 1 0 15 0 a7.5 7.5 0 1 0 -15 0zM1185.99 421.56 a7.5 7.5 0 1 0 15 0 a7.5 7.5 0 1 0 -15 0zM1185.99 346.56 a7.5 7.5 0 1 0 15 0 a7.5 7.5 0 1 0 -15 0zM1250.94 534.06 a7.5 7.5 0 1 0 15 0 a7.5 7.5 0 1 0 -15 0zM1121.03 459.06 a7.5 7.5 0 1 0 15 0 a7.5 7.5 0 1 0 -15 0zM1315.89 571.56 a7.5 7.5 0 1 0 15 0 a7.5 7.5 0 1 0 -15 0zM1315.89 646.56 a7.5 7.5 0 1 0 15 0 a7.5 7.5 0 1 0 -15 0zM1250.94 684.06 a7.5 7.5 0 1 0 15 0 a7.5 7.5 0 1 0 -15 0zM1315.89 -28.44 a7.5 7.5 0 1 0 15 0 a7.5 7.5 0 1 0 -15 0zM1380.85 9.06 a7.5 7.5 0 1 0 15 0 a7.5 7.5 0 1 0 -15 0zM1380.85 84.06 a7.5 7.5 0 1 0 15 0 a7.5 7.5 0 1 0 -15 0zM1250.94 9.06 a7.5 7.5 0 1 0 15 0 a7.5 7.5 0 1 0 -15 0zM1380.85 459.06 a7.5 7.5 0 1 0 15 0 a7.5 7.5 0 1 0 -15 0zM1380.85 534.06 a7.5 7.5 0 1 0 15 0 a7.5 7.5 0 1 0 -15 0zM1445.8 571.56 a7.5 7.5 0 1 0 15 0 a7.5 7.5 0 1 0 -15 0zM1445.8 646.56 a7.5 7.5 0 1 0 15 0 a7.5 7.5 0 1 0 -15 0zM1380.85 684.06 a7.5 7.5 0 1 0 15 0 a7.5 7.5 0 1 0 -15 0zM1445.8 -28.44 a7.5 7.5 0 1 0 15 0 a7.5 7.5 0 1 0 -15 0zM1510.76 9.06 a7.5 7.5 0 1 0 15 0 a7.5 7.5 0 1 0 -15 0zM1510.76 84.06 a7.5 7.5 0 1 0 15 0 a7.5 7.5 0 1 0 -15 0zM1445.8 121.56 a7.5 7.5 0 1 0 15 0 a7.5 7.5 0 1 0 -15 0zM1445.8 196.56 a7.5 7.5 0 1 0 15 0 a7.5 7.5 0 1 0 -15 0zM1510.76 234.06 a7.5 7.5 0 1 0 15 0 a7.5 7.5 0 1 0 -15 0zM1510.76 309.06 a7.5 7.5 0 1 0 15 0 a7.5 7.5 0 1 0 -15 0zM1445.8 346.56 a7.5 7.5 0 1 0 15 0 a7.5 7.5 0 1 0 -15 0zM1380.85 309.06 a7.5 7.5 0 1 0 15 0 a7.5 7.5 0 1 0 -15 0zM1380.85 234.06 a7.5 7.5 0 1 0 15 0 a7.5 7.5 0 1 0 -15 0zM1575.71 346.56 a7.5 7.5 0 1 0 15 0 a7.5 7.5 0 1 0 -15 0zM1575.71 421.56 a7.5 7.5 0 1 0 15 0 a7.5 7.5 0 1 0 -15 0zM1510.76 459.06 a7.5 7.5 0 1 0 15 0 a7.5 7.5 0 1 0 -15 0zM1445.8 421.56 a7.5 7.5 0 1 0 15 0 a7.5 7.5 0 1 0 -15 0z" fill="#03305d"></path><path d="M43.8 42.33L87.11 67.33L87.11 117.33L43.8 142.33L0.5 117.33L0.5 67.33zM43.8 342.33L87.11 367.33L87.11 417.33L43.8 442.33L0.5 417.33L0.5 367.33zM43.8 492.33L87.11 517.33L87.11 567.33L43.8 592.33L0.5 567.33L0.5 517.33zM130.41 192.33L173.71 217.33L173.71 267.33L130.41 292.33L87.11 267.33L87.11 217.33zM87.11 417.33L130.41 442.33L130.41 492.33L87.11 517.33L43.8 492.33L43.8 442.33zM173.71 267.33L217.01 292.33L217.01 342.33L173.71 367.33L130.41 342.33L130.41 292.33zM217.01 342.33L260.31 367.33L260.31 417.33L217.01 442.33L173.71 417.33L173.71 367.33zM260.31 -32.67L303.62 -7.67L303.62 42.33L260.31 67.33L217.01 42.33L217.01 -7.67zM260.31 417.33L303.62 442.33L303.62 492.33L260.31 517.33L217.01 492.33L217.01 442.33zM346.92 117.33L390.22 142.33L390.22 192.33L346.92 217.33L303.62 192.33L303.62 142.33zM390.22 342.33L433.53 367.33L433.53 417.33L390.22 442.33L346.92 417.33L346.92 367.33zM476.83 42.33L520.13 67.33L520.13 117.33L476.83 142.33L433.53 117.33L433.53 67.33zM433.53 417.33L476.83 442.33L476.83 492.33L433.53 517.33L390.22 492.33L390.22 442.33zM520.13 117.33L563.43 142.33L563.43 192.33L520.13 217.33L476.83 192.33L476.83 142.33zM563.43 192.33L606.74 217.33L606.74 267.33L563.43 292.33L520.13 267.33L520.13 217.33zM520.13 267.33L563.43 292.33L563.43 342.33L520.13 367.33L476.83 342.33L476.83 292.33zM520.13 417.33L563.43 442.33L563.43 492.33L520.13 517.33L476.83 492.33L476.83 442.33zM606.74 117.33L650.04 142.33L650.04 192.33L606.74 217.33L563.43 192.33L563.43 142.33zM606.74 267.33L650.04 292.33L650.04 342.33L606.74 367.33L563.43 342.33L563.43 292.33zM650.04 492.33L693.34 517.33L693.34 567.33L650.04 592.33L606.74 567.33L606.74 517.33zM736.64 192.33L779.95 217.33L779.95 267.33L736.64 292.33L693.34 267.33L693.34 217.33zM779.95 267.33L823.25 292.33L823.25 342.33L779.95 367.33L736.64 342.33L736.64 292.33zM823.25 492.33L866.55 517.33L866.55 567.33L823.25 592.33L779.95 567.33L779.95 517.33zM909.85 342.33L953.16 367.33L953.16 417.33L909.85 442.33L866.55 417.33L866.55 367.33zM996.46 42.33L1039.76 67.33L1039.76 117.33L996.46 142.33L953.16 117.33L953.16 67.33zM996.46 192.33L1039.76 217.33L1039.76 267.33L996.46 292.33L953.16 267.33L953.16 217.33zM953.16 417.33L996.46 442.33L996.46 492.33L953.16 517.33L909.85 492.33L909.85 442.33zM1083.06 42.33L1126.37 67.33L1126.37 117.33L1083.06 142.33L1039.76 117.33L1039.76 67.33zM1083.06 192.33L1126.37 217.33L1126.37 267.33L1083.06 292.33L1039.76 267.33L1039.76 217.33zM1039.76 417.33L1083.06 442.33L1083.06 492.33L1039.76 517.33L996.46 492.33L996.46 442.33zM1126.37 -32.67L1169.67 -7.67L1169.67 42.33L1126.37 67.33L1083.06 42.33L1083.06 -7.67zM1169.67 42.33L1212.97 67.33L1212.97 117.33L1169.67 142.33L1126.37 117.33L1126.37 67.33zM1126.37 117.33L1169.67 142.33L1169.67 192.33L1126.37 217.33L1083.06 192.33L1083.06 142.33zM1169.67 192.33L1212.97 217.33L1212.97 267.33L1169.67 292.33L1126.37 267.33L1126.37 217.33zM1212.97 -32.67L1256.27 -7.67L1256.27 42.33L1212.97 67.33L1169.67 42.33L1169.67 -7.67zM1256.27 192.33L1299.58 217.33L1299.58 267.33L1256.27 292.33L1212.97 267.33L1212.97 217.33zM1212.97 267.33L1256.27 292.33L1256.27 342.33L1212.97 367.33L1169.67 342.33L1169.67 292.33zM1256.27 492.33L1299.58 517.33L1299.58 567.33L1256.27 592.33L1212.97 567.33L1212.97 517.33zM1299.58 117.33L1342.88 142.33L1342.88 192.33L1299.58 217.33L1256.27 192.33L1256.27 142.33zM1342.88 192.33L1386.18 217.33L1386.18 267.33L1342.88 292.33L1299.58 267.33L1299.58 217.33zM1342.88 342.33L1386.18 367.33L1386.18 417.33L1342.88 442.33L1299.58 417.33L1299.58 367.33zM1429.48 42.33L1472.79 67.33L1472.79 117.33L1429.48 142.33L1386.18 117.33L1386.18 67.33zM1429.48 192.33L1472.79 217.33L1472.79 267.33L1429.48 292.33L1386.18 267.33L1386.18 217.33zM1429.48 492.33L1472.79 517.33L1472.79 567.33L1429.48 592.33L1386.18 567.33L1386.18 517.33z" stroke="rgba(6, 80, 156, 0.93)" stroke-width="2"></path></g><defs><mask id="SvgjsMask1000"><rect width="1440" height="560" fill="#ffffff"></rect></mask></defs></svg>